# File created by Blade
# Date/Time:  Mon Nov 18 17:26:10 2013
# Frame Rate: 100.000 fps
#------------------------------------------------------
:FULLY-SPECIFIED
:DEGREES
235
root -36.303461 -2.841702 38.461633 12.011122 -4.490565 14.488374
Spine 22.167938 -4.165532 2.825152
Spine1 8.169334 -1.463945 5.778718
Spine2 -22.538626 -0.701052 0.086097
NeckDummy -0.064900 0.216053 0.935058 13.608221 -0.917230 0.513745
Neck 2.218101 -15.353124 38.763177
Head -0.421110 -0.005643 0.292121 -5.426034 -4.959669 -2.121986
LeftShoulderDummy -0.117014 0.241949 0.961402 13.603856 -1.105501 0.779855
LeftShoulder 3.293910 -7.127467 13.123323
LeftArm 20.698028 34.883915 22.171460
LeftForeArm 45.679967
LeftForeArmRoll 26.752488
LeftHand -33.690909 -23.121463 11.835164
LeftHandThumb1 13.148973 4.635335
LeftHandIndex1 0.127844 41.729791
LeftHandPinky1 2.464416 62.829556
RightShoulderDummy -0.050324 0.217981 0.898634 13.580852 0.898778 -0.466365
RightShoulder 4.796760 5.873771 5.424103
RightArm 13.721430 68.770334 52.509943
RightForeArm 100.647566
RightForeArmRoll 22.248398
RightHand -46.118678 -25.034718 8.774855
RightHandThumb1 14.993875 7.208927
RightHandIndex1 3.748717 33.277833
RightHandPinky1 9.649355 61.707275
LeftUpLeg -6.636202 22.380595 -48.480811
LeftLeg 49.631314
LeftFoot 0.009058 -0.635837 -1.562319 -19.305629 18.346383 -4.932022
LeftToeBase 1.310079
RightUpLeg 0.793817 19.212607 -34.965391
RightLeg 48.252522
RightFoot -0.476586 0.919961 0.754143 -22.013648 6.928820 -17.334590
RightToeBase -2.669640
236
root -36.405538 -2.862224 38.486204 11.934825 -4.387552 14.595647
Spine 22.145316 -4.120167 2.782956
Spine1 8.154742 -1.445588 5.704485
Spine2 -22.530014 -0.692154 0.041441
NeckDummy -0.062318 0.220331 0.934629 13.603741 -0.877337 0.490868
Neck 2.297497 -15.367901 38.730744
Head -0.417893 -0.009310 0.291689 -5.366400 -4.988950 -2.068315
LeftShoulderDummy -0.113315 0.244936 0.960166 13.599566 -1.058843 0.715969
LeftShoulder 3.280787 -7.172385 13.158418
LeftArm 20.451323 34.782366 22.092088
LeftForeArm 45.609175
LeftForeArmRoll 26.615391
LeftHand -33.467871 -23.052335 11.846772
LeftHandThumb1 13.396531 4.197056
LeftHandIndex1 0.040425 41.573337
LeftHandPinky1 2.173653 63.107964
RightShoulderDummy -0.047680 0.223100 0.899040 13.575822 0.857457 -0.432850
RightShoulder 4.853387 5.873248 5.487854
RightArm 13.304029 68.786357 52.159720
RightForeArm 100.692291
RightForeArmRoll 22.084801
RightHand -46.069548 -24.924619 8.867254
RightHandThumb1 14.715404 7.122686
RightHandIndex1 3.750723 33.223275
RightHandPinky1 9.612001 61.480882
LeftUpLeg -6.805024 22.369205 -48.438914
LeftLeg 49.569672
LeftFoot 0.012388 -0.642606 -1.560185 -19.480391 18.335653 -4.771818
LeftToeBase 1.310593
RightUpLeg 0.815096 19.228883 -34.772297
RightLeg 48.177706
RightFoot -0.495398 0.919238 0.772394 -22.538277 6.962166 -17.582415
RightToeBase -2.356844
237
root -36.519256 -2.881850 38.510898 11.861714 -4.291622 14.682737
Spine 22.124654 -4.062895 2.730060
Spine1 8.137334 -1.438327 5.600038
Spine2 -22.510055 -0.753817 0.009727
NeckDummy -0.064641 0.224023 0.934804 13.604935 -0.858721 0.518327
Neck 2.359646 -15.421895 38.793747
Head -0.423090 -0.010097 0.289531 -5.344529 -5.027531 -2.116936
LeftShoulderDummy -0.114079 0.249165 0.959728 13.600082 -1.034069 0.733058
LeftShoulder 3.281199 -7.254537 13.280265
LeftArm 20.210422 34.691750 22.060334
LeftForeArm 45.587620
LeftForeArmRoll 26.809854
LeftHand -33.553874 -23.086210 11.787130
LeftHandThumb1 13.203750 4.851801
LeftHandIndex1 0.089847 41.782157
LeftHandPinky1 2.335103 62.978399
RightShoulderDummy -0.049977 0.226211 0.899534 13.576825 0.838429 -0.459759
RightShoulder 4.901003 5.901813 5.533027
RightArm 12.963864 68.800407 51.885408
RightForeArm 100.741100
RightForeArmRoll 22.030659
RightHand -46.071946 -25.046544 9.035313
RightHandThumb1 14.739552 7.350371
RightHandIndex1 4.139558 33.444627
RightHandPinky1 9.564971 61.651301
LeftUpLeg -6.958379 22.389079 -48.367932
LeftLeg 49.455005
LeftFoot 0.016113 -0.643733 -1.554788 -19.676403 18.356160 -4.561930
LeftToeBase 1.310145
RightUpLeg 0.858027 19.189547 -34.618144
RightLeg 48.187186
RightFoot -0.506753 0.918390 0.776925 -22.810624 7.074986 -17.947102
RightToeBase -2.049349
238
root -36.635741 -2.901040 38.535555 11.765771 -4.192288 14.739457
Spine 22.115093 -4.024463 2.702177
Spine1 8.129621 -1.426359 5.534777
Spine2 -22.514634 -0.819726 -0.037851
NeckDummy -0.068356 0.226632 0.936053 13.616784 -0.826717 0.430771
Neck 2.270413 -15.339182 38.710367
Head -0.420129 -0.013291 0.285285 -5.247645 -5.049465 -2.053872
LeftShoulderDummy -0.118495 0.250578 0.960612 13.612999 -1.006933 0.671705
LeftShoulder 3.331192 -7.242377 13.386013
LeftArm 19.939388 34.585090 21.986330
LeftForeArm 45.620018
LeftForeArmRoll 26.904215
LeftHand -33.669179 -23.122508 11.856193
LeftHandThumb1 13.392619 4.271242
LeftHandIndex1 0.081977 41.714638
LeftHandPinky1 2.472957 63.100545
RightShoulderDummy -0.054348 0.230288 0.901405 13.589477 0.808559 -0.381589
RightShoulder 4.965144 5.776485 5.572344
RightArm 12.444361 68.761421 51.443448
RightForeArm 100.754429
RightForeArmRoll 21.756371
RightHand -46.068243 -25.083050 9.262679
RightHandThumb1 14.616413 7.538214
RightHandIndex1 4.287139 33.565289
RightHandPinky1 9.739207 61.924183
LeftUpLeg -7.100892 22.429186 -48.255598
LeftLeg 49.327852
LeftFoot 0.016140 -0.646366 -1.550167 -19.870369 18.366492 -4.369097
LeftToeBase 1.301700
RightUpLeg 1.109016 19.195941 -34.523948
RightLeg 48.301114
RightFoot -0.510718 0.903552 0.788809 -22.762651 7.127188 -18.194594
RightToeBase -1.779584
